<svg width="170" height="48" viewBox="0 0 170 48" fill="none" xmlns="http://www.w3.org/2000/svg">
<rect width="170" height="48" rx="24" fill="#DD514C"/>
<path d="M47.8276 27.21C47.1916 28.146 46.3996 28.884 45.4516 29.424C44.5156 29.964 43.4236 30.234 42.1756 30.234C40.9636 30.234 39.8536 29.958 38.8456 29.406C37.8496 28.854 37.0576 28.092 36.4696 27.12C35.8936 26.148 35.6056 25.062 35.6056 23.862C35.6056 22.614 35.8816 21.498 36.4336 20.514C36.9856 19.53 37.7236 18.768 38.6476 18.228C39.5836 17.676 40.5916 17.4 41.6716 17.4C43.2196 17.4 44.4736 17.916 45.4336 18.948V17.652H47.5756V21.81L46.0276 21.954C45.6556 21.138 45.1396 20.49 44.4796 20.01C43.8196 19.53 43.0036 19.29 42.0316 19.29C41.3476 19.29 40.6996 19.476 40.0876 19.848C39.4876 20.208 39.0016 20.736 38.6296 21.432C38.2696 22.116 38.0896 22.914 38.0896 23.826C38.0896 24.666 38.2696 25.428 38.6296 26.112C38.9896 26.784 39.4816 27.318 40.1056 27.714C40.7296 28.098 41.4196 28.29 42.1756 28.29C43.1116 28.29 43.8976 28.092 44.5336 27.696C45.1816 27.288 45.7636 26.706 46.2796 25.95L47.8276 27.21ZM53.714 30.252C52.874 30.252 52.088 30.066 51.356 29.694C50.624 29.322 50.036 28.794 49.592 28.11C49.148 27.426 48.926 26.646 48.926 25.77C48.926 24.894 49.148 24.114 49.592 23.43C50.036 22.746 50.624 22.218 51.356 21.846C52.088 21.474 52.874 21.288 53.714 21.288C54.53 21.288 55.304 21.474 56.036 21.846C56.78 22.218 57.374 22.746 57.818 23.43C58.274 24.114 58.502 24.894 58.502 25.77C58.502 26.646 58.28 27.426 57.836 28.11C57.404 28.794 56.822 29.322 56.09 29.694C55.358 30.066 54.566 30.252 53.714 30.252ZM53.732 28.47C54.428 28.47 55.004 28.224 55.46 27.732C55.928 27.24 56.162 26.586 56.162 25.77C56.162 24.954 55.928 24.3 55.46 23.808C55.004 23.316 54.428 23.07 53.732 23.07C53.024 23.07 52.436 23.316 51.968 23.808C51.512 24.3 51.284 24.954 51.284 25.77C51.284 26.586 51.512 27.24 51.968 27.732C52.436 28.224 53.024 28.47 53.732 28.47ZM72.1754 28.218V30H66.9014V28.218H68.3774V25.284C68.3774 24.708 68.2214 24.252 67.9094 23.916C67.6094 23.58 67.1774 23.412 66.6134 23.412C65.7014 23.412 64.7174 24.012 63.6614 25.212V28.218H65.1194V30H59.6114V28.218H61.4114V23.304H59.6114V21.522H63.6614V23.466C64.3094 22.734 64.9274 22.194 65.5154 21.846C66.1154 21.486 66.7574 21.306 67.4414 21.306C68.4734 21.306 69.2594 21.642 69.7994 22.314C70.3514 22.986 70.6274 23.97 70.6274 25.266V28.218H72.1754ZM80.1278 29.352C79.6958 29.628 79.2518 29.844 78.7958 30C78.3398 30.156 77.8238 30.234 77.2478 30.234C76.2398 30.234 75.4418 29.916 74.8538 29.28C74.2778 28.644 73.9898 27.762 73.9898 26.634V23.304H72.2078V21.522H73.9898V19.164H76.2398V21.522H78.8318V23.304H76.2398V26.652C76.2398 27.18 76.3598 27.582 76.5998 27.858C76.8398 28.122 77.1818 28.254 77.6258 28.254C77.9258 28.254 78.2078 28.206 78.4718 28.11C78.7358 28.014 79.0298 27.87 79.3538 27.678L80.1278 29.352ZM90.6312 29.766C90.4632 29.874 90.2412 29.964 89.9652 30.036C89.6892 30.108 89.3832 30.144 89.0472 30.144C88.5912 30.144 88.1892 30.018 87.8412 29.766C87.5052 29.502 87.2712 29.136 87.1392 28.668C85.9512 29.724 84.7752 30.252 83.6112 30.252C82.7832 30.252 82.0872 30.024 81.5232 29.568C80.9592 29.1 80.6772 28.434 80.6772 27.57C80.6772 26.97 80.8452 26.454 81.1812 26.022C81.5172 25.59 81.9552 25.266 82.4952 25.05C83.0472 24.822 83.6292 24.708 84.2412 24.708C84.7692 24.708 85.2492 24.762 85.6812 24.87C86.1132 24.966 86.5572 25.11 87.0132 25.302V24.636C87.0132 24.156 86.8152 23.796 86.4192 23.556C86.0352 23.316 85.5372 23.196 84.9252 23.196C84.0252 23.196 82.9332 23.442 81.6492 23.934L81.1992 22.224C82.6512 21.612 83.9952 21.306 85.2312 21.306C86.4912 21.306 87.4572 21.612 88.1292 22.224C88.8132 22.824 89.1552 23.658 89.1552 24.726V27.57C89.1552 28.038 89.3292 28.272 89.6772 28.272C89.8452 28.272 90.0132 28.236 90.1812 28.164L90.6312 29.766ZM82.9092 27.444C82.9092 27.756 83.0352 27.996 83.2872 28.164C83.5392 28.32 83.8512 28.398 84.2232 28.398C84.5712 28.398 84.9912 28.302 85.4832 28.11C85.9752 27.918 86.4852 27.624 87.0132 27.228V26.742C86.2812 26.466 85.5012 26.328 84.6732 26.328C84.1812 26.34 83.7612 26.442 83.4132 26.634C83.0772 26.814 82.9092 27.084 82.9092 27.444ZM99.9285 28.668C99.3885 29.172 98.7825 29.562 98.1105 29.838C97.4385 30.114 96.7185 30.252 95.9505 30.252C95.1225 30.252 94.3545 30.06 93.6465 29.676C92.9385 29.292 92.3745 28.758 91.9545 28.074C91.5345 27.39 91.3245 26.616 91.3245 25.752C91.3245 24.936 91.5165 24.186 91.9005 23.502C92.2965 22.818 92.8185 22.278 93.4665 21.882C94.1265 21.486 94.8345 21.288 95.5905 21.288C96.1665 21.288 96.6585 21.384 97.0665 21.576C97.4745 21.756 97.8405 22.026 98.1645 22.386V21.522H99.7485V24.546L98.7945 24.618C98.1825 23.622 97.3425 23.124 96.2745 23.124C95.5185 23.124 94.8945 23.37 94.4025 23.862C93.9105 24.342 93.6645 24.96 93.6645 25.716C93.6645 26.232 93.7785 26.688 94.0065 27.084C94.2465 27.48 94.5585 27.792 94.9425 28.02C95.3385 28.236 95.7645 28.35 96.2205 28.362C96.7605 28.362 97.2405 28.266 97.6605 28.074C98.0925 27.87 98.5305 27.576 98.9745 27.192L99.9285 28.668ZM108.358 29.352C107.926 29.628 107.482 29.844 107.026 30C106.57 30.156 106.054 30.234 105.478 30.234C104.47 30.234 103.672 29.916 103.084 29.28C102.508 28.644 102.22 27.762 102.22 26.634V23.304H100.438V21.522H102.22V19.164H104.47V21.522H107.062V23.304H104.47V26.652C104.47 27.18 104.59 27.582 104.83 27.858C105.07 28.122 105.412 28.254 105.856 28.254C106.156 28.254 106.438 28.206 106.702 28.11C106.966 28.014 107.26 27.87 107.584 27.678L108.358 29.352ZM125.479 29.802C124.999 30.042 124.495 30.162 123.967 30.162C123.379 30.162 122.887 30 122.491 29.676C122.095 29.352 121.855 28.896 121.771 28.308C121.183 28.956 120.619 29.442 120.079 29.766C119.539 30.078 118.963 30.234 118.351 30.234C117.367 30.234 116.605 29.898 116.065 29.226C115.537 28.554 115.273 27.57 115.273 26.274V23.304H113.707V21.522H117.523V26.238C117.523 26.838 117.649 27.306 117.901 27.642C118.153 27.978 118.579 28.146 119.179 28.146C119.971 28.146 120.823 27.642 121.735 26.634V23.304H120.313V21.522H123.985V27.606C123.985 28.062 124.159 28.29 124.507 28.29C124.699 28.29 124.867 28.26 125.011 28.2L125.479 29.802ZM130.879 24.816C131.971 25.128 132.805 25.518 133.381 25.986C133.969 26.454 134.263 27.066 134.263 27.822C134.263 28.29 134.125 28.71 133.849 29.082C133.573 29.454 133.195 29.742 132.715 29.946C132.235 30.15 131.701 30.252 131.113 30.252C130.513 30.252 129.943 30.156 129.403 29.964C128.863 29.772 128.383 29.496 127.963 29.136V30.018H126.325V27.228L127.315 27.138C127.675 27.594 128.185 27.984 128.845 28.308C129.505 28.632 130.117 28.794 130.681 28.794C131.077 28.794 131.383 28.728 131.599 28.596C131.815 28.452 131.923 28.26 131.923 28.02C131.923 27.756 131.749 27.522 131.401 27.318C131.065 27.114 130.459 26.892 129.583 26.652C128.503 26.352 127.687 25.98 127.135 25.536C126.583 25.08 126.307 24.492 126.307 23.772C126.307 23.316 126.433 22.902 126.685 22.53C126.937 22.146 127.291 21.846 127.747 21.63C128.203 21.402 128.731 21.288 129.331 21.288C130.447 21.288 131.389 21.642 132.157 22.35V21.522H133.795V24.294L132.805 24.384C132.481 23.868 132.061 23.466 131.545 23.178C131.041 22.89 130.513 22.746 129.961 22.746C129.577 22.746 129.259 22.818 129.007 22.962C128.767 23.106 128.647 23.292 128.647 23.52C128.647 23.772 128.809 23.994 129.133 24.186C129.469 24.366 130.051 24.576 130.879 24.816Z" fill="white"/>
</svg>
