<svg width="129" height="47" viewBox="0 0 129 47" fill="none" xmlns="http://www.w3.org/2000/svg">
<path d="M44.792 36.856H35.72V46.936H26.72V36.856H0.512V29.296L26.504 0.352H35.72V29.296H44.792V36.856ZM26.72 29.296V10.216L9.8 29.296H26.72ZM86.885 31.024V46H47.573V38.44C47.861 34.648 49.469 31.456 52.397 28.864C55.325 26.272 59.573 23.944 65.141 21.88C68.261 20.68 70.589 19.696 72.125 18.928C73.709 18.16 74.813 17.392 75.437 16.624C76.109 15.856 76.469 14.944 76.517 13.888C76.517 12.16 75.725 10.744 74.141 9.64C72.605 8.488 70.493 7.912 67.805 7.912C65.165 7.912 62.501 8.56 59.813 9.856C57.173 11.152 54.629 12.928 52.181 15.184L47.501 9.64C50.285 6.856 53.477 4.624 57.077 2.944C60.725 1.216 64.565 0.352 68.597 0.352C71.573 0.352 74.357 0.879999 76.949 1.936C79.589 2.992 81.725 4.552 83.357 6.616C84.989 8.632 85.805 11.032 85.805 13.816C85.805 16.312 85.133 18.472 83.789 20.296C82.445 22.072 80.573 23.608 78.173 24.904C75.821 26.2 72.749 27.544 68.957 28.936C64.733 30.52 61.709 31.96 59.885 33.256C58.061 34.552 57.029 36.28 56.789 38.44H79.397V31.024H86.885ZM128.71 27.496H115.318V41.824H107.614V27.496H94.2943V19.792H107.614V5.536H115.318V19.792H128.71V27.496Z" fill="white"/>
</svg>
