<svg width="134" height="48" viewBox="0 0 134 48" fill="none" xmlns="http://www.w3.org/2000/svg">
<path d="M40.768 1.648V9.28L16.792 47.008L9.232 43.12L30.976 9.28H8.44V19.288H0.88V1.648H40.768ZM71.7449 23.608C79.2809 25.144 83.0489 28.744 83.0489 34.408C83.0489 36.76 82.2089 38.872 80.5289 40.744C78.8489 42.568 76.5449 44.008 73.6169 45.064C70.7369 46.12 67.4969 46.648 63.8969 46.648C59.5289 46.648 55.7369 46.048 52.5209 44.848C49.3049 43.6 46.3529 42.04 43.6649 40.168L47.1209 33.544C49.3769 35.176 51.9689 36.52 54.8969 37.576C57.8249 38.584 60.8489 39.088 63.9689 39.088C66.8489 39.088 69.1769 38.584 70.9529 37.576C72.7769 36.52 73.6889 35.152 73.6889 33.472C73.6889 31.456 72.4649 29.944 70.0169 28.936C67.6169 27.88 63.7049 27.352 58.2809 27.352H52.2329V20.512H58.2809C62.7449 20.512 66.1289 19.912 68.4329 18.712C70.7369 17.512 71.8889 15.88 71.8889 13.816C71.8889 12.136 71.0969 10.744 69.5129 9.64C67.9769 8.488 65.9609 7.912 63.4649 7.912C58.5209 7.912 53.5769 10.048 48.6329 14.32L44.0969 8.272C46.6409 6.016 49.6409 4.144 53.0969 2.656C56.5529 1.12 60.1529 0.352 63.8969 0.352C67.1609 0.352 70.1129 0.855999 72.7529 1.864C75.3929 2.824 77.4809 4.264 79.0169 6.184C80.5529 8.104 81.3209 10.36 81.3209 12.952C81.3209 15.352 80.4569 17.464 78.7289 19.288C77.0009 21.112 74.6729 22.552 71.7449 23.608ZM111.094 46.936C107.302 46.936 103.678 46.048 100.222 44.272C96.766 42.448 93.958 39.784 91.798 36.28C89.638 32.776 88.558 28.576 88.558 23.68C88.558 18.784 89.638 14.584 91.798 11.08C93.958 7.576 96.766 4.912 100.222 3.088C103.678 1.264 107.302 0.352 111.094 0.352C114.886 0.352 118.51 1.264 121.966 3.088C125.422 4.912 128.23 7.576 130.39 11.08C132.598 14.584 133.702 18.784 133.702 23.68C133.702 28.528 132.598 32.728 130.39 36.28C128.23 39.784 125.422 42.448 121.966 44.272C118.51 46.048 114.886 46.936 111.094 46.936ZM111.094 39.808C113.542 39.808 115.75 39.136 117.718 37.792C119.734 36.448 121.294 34.552 122.398 32.104C123.55 29.656 124.126 26.848 124.126 23.68C124.126 20.464 123.55 17.632 122.398 15.184C121.294 12.736 119.758 10.84 117.79 9.496C115.822 8.152 113.59 7.48 111.094 7.48C108.646 7.48 106.438 8.152 104.47 9.496C102.502 10.84 100.942 12.736 99.79 15.184C98.686 17.632 98.134 20.464 98.134 23.68C98.134 26.848 98.686 29.656 99.79 32.104C100.942 34.552 102.502 36.448 104.47 37.792C106.438 39.136 108.646 39.808 111.094 39.808Z" fill="white"/>
</svg>
