<svg width="142" height="20" viewBox="0 0 142 20" fill="none" xmlns="http://www.w3.org/2000/svg">
<path d="M0.48 15V0.999999H5.08C6.17333 0.999999 7.07333 1.18 7.78 1.54C8.48667 1.9 9.00667 2.38667 9.34 3C9.68667 3.61333 9.86 4.30667 9.86 5.08C9.86 5.84 9.69333 6.52667 9.36 7.14C9.02667 7.75333 8.50667 8.24667 7.8 8.62C7.09333 8.98 6.18667 9.16 5.08 9.16H2.16V15H0.48ZM2.16 7.74H5.04C6.16 7.74 6.95333 7.50667 7.42 7.04C7.9 6.56 8.14 5.90667 8.14 5.08C8.14 4.24 7.9 3.58667 7.42 3.12C6.95333 2.64 6.16 2.4 5.04 2.4H2.16V7.74ZM11.962 15V5.08H13.482L13.622 6.98C13.9287 6.32667 14.3954 5.80667 15.022 5.42C15.6487 5.03333 16.422 4.84 17.342 4.84V6.6H16.882C16.2954 6.6 15.7554 6.70667 15.262 6.92C14.7687 7.12 14.3754 7.46667 14.082 7.96C13.7887 8.45333 13.642 9.13333 13.642 10V15H11.962ZM23.3766 15.24C22.4432 15.24 21.6032 15.0267 20.8566 14.6C20.1099 14.1733 19.5166 13.5733 19.0766 12.8C18.6499 12.0133 18.4366 11.0933 18.4366 10.04C18.4366 8.98667 18.6566 8.07333 19.0966 7.3C19.5366 6.51333 20.1299 5.90667 20.8766 5.48C21.6366 5.05333 22.4832 4.84 23.4166 4.84C24.3499 4.84 25.1899 5.05333 25.9366 5.48C26.6832 5.90667 27.2699 6.51333 27.6966 7.3C28.1366 8.07333 28.3566 8.98667 28.3566 10.04C28.3566 11.0933 28.1366 12.0133 27.6966 12.8C27.2566 13.5733 26.6566 14.1733 25.8966 14.6C25.1499 15.0267 24.3099 15.24 23.3766 15.24ZM23.3766 13.8C23.9499 13.8 24.4832 13.66 24.9766 13.38C25.4699 13.1 25.8699 12.68 26.1766 12.12C26.4832 11.56 26.6366 10.8667 26.6366 10.04C26.6366 9.21333 26.4832 8.52 26.1766 7.96C25.8832 7.4 25.4899 6.98 24.9966 6.7C24.5032 6.42 23.9766 6.28 23.4166 6.28C22.8432 6.28 22.3099 6.42 21.8166 6.7C21.3232 6.98 20.9232 7.4 20.6166 7.96C20.3099 8.52 20.1566 9.21333 20.1566 10.04C20.1566 10.8667 20.3099 11.56 20.6166 12.12C20.9232 12.68 21.3166 13.1 21.7966 13.38C22.2899 13.66 22.8166 13.8 23.3766 13.8ZM31.7925 2.88C31.4725 2.88 31.1992 2.77333 30.9725 2.56C30.7458 2.33333 30.6325 2.05333 30.6325 1.72C30.6325 1.4 30.7458 1.13333 30.9725 0.919999C31.1992 0.706666 31.4725 0.599999 31.7925 0.599999C32.1125 0.599999 32.3792 0.706666 32.5925 0.919999C32.8192 1.13333 32.9325 1.4 32.9325 1.72C32.9325 2.05333 32.8192 2.33333 32.5925 2.56C32.3792 2.77333 32.1125 2.88 31.7925 2.88ZM28.7525 19.4V17.96H29.5325C30.0258 17.96 30.3792 17.8533 30.5925 17.64C30.8192 17.44 30.9325 17.0933 30.9325 16.6V5.08H32.6125V16.64C32.6125 17.6 32.3725 18.3 31.8925 18.74C31.4125 19.18 30.7125 19.4 29.7925 19.4H28.7525ZM39.9963 15.24C39.0496 15.24 38.2096 15.0267 37.4763 14.6C36.7429 14.16 36.1629 13.5533 35.7363 12.78C35.3229 12.0067 35.1163 11.0933 35.1163 10.04C35.1163 9 35.3229 8.09333 35.7363 7.32C36.1496 6.53333 36.7229 5.92667 37.4563 5.5C38.2029 5.06 39.0629 4.84 40.0362 4.84C40.9963 4.84 41.8229 5.06 42.5163 5.5C43.2229 5.92667 43.7629 6.49333 44.1363 7.2C44.5096 7.90667 44.6963 8.66667 44.6963 9.48C44.6963 9.62667 44.6896 9.77333 44.6763 9.92C44.6763 10.0667 44.6763 10.2333 44.6763 10.42H36.7763C36.8163 11.18 36.9896 11.8133 37.2963 12.32C37.6163 12.8133 38.0096 13.1867 38.4763 13.44C38.9563 13.6933 39.4629 13.82 39.9963 13.82C40.6896 13.82 41.2696 13.66 41.7363 13.34C42.2029 13.02 42.5429 12.5867 42.7563 12.04H44.4163C44.1496 12.96 43.6363 13.7267 42.8763 14.34C42.1296 14.94 41.1696 15.24 39.9963 15.24ZM39.9963 6.26C39.1963 6.26 38.4829 6.50667 37.8563 7C37.2429 7.48 36.8896 8.18667 36.7962 9.12H43.0363C42.9963 8.22667 42.6896 7.52667 42.1163 7.02C41.5429 6.51333 40.8363 6.26 39.9963 6.26ZM51.483 15.24C50.5363 15.24 49.683 15.0267 48.923 14.6C48.1763 14.16 47.583 13.5533 47.143 12.78C46.7163 11.9933 46.503 11.08 46.503 10.04C46.503 9 46.7163 8.09333 47.143 7.32C47.583 6.53333 48.1763 5.92667 48.923 5.5C49.683 5.06 50.5363 4.84 51.483 4.84C52.6563 4.84 53.643 5.14667 54.443 5.76C55.2563 6.37333 55.7696 7.19333 55.983 8.22H54.263C54.1296 7.60667 53.803 7.13333 53.283 6.8C52.763 6.45333 52.1563 6.28 51.463 6.28C50.903 6.28 50.3763 6.42 49.883 6.7C49.3896 6.98 48.9896 7.4 48.683 7.96C48.3763 8.52 48.223 9.21333 48.223 10.04C48.223 10.8667 48.3763 11.56 48.683 12.12C48.9896 12.68 49.3896 13.1067 49.883 13.4C50.3763 13.68 50.903 13.82 51.463 13.82C52.1563 13.82 52.763 13.6533 53.283 13.32C53.803 12.9733 54.1296 12.4867 54.263 11.86H55.983C55.783 12.86 55.2763 13.6733 54.463 14.3C53.6496 14.9267 52.6563 15.24 51.483 15.24ZM61.9758 15C61.0691 15 60.3558 14.78 59.8358 14.34C59.3158 13.9 59.0558 13.1067 59.0558 11.96V6.5H57.3358V5.08H59.0558L59.2758 2.7H60.7358V5.08H63.6558V6.5H60.7358V11.96C60.7358 12.5867 60.8624 13.0133 61.1158 13.24C61.3691 13.4533 61.8158 13.56 62.4558 13.56H63.4958V15H61.9758ZM71.6231 15V6.5H70.1231V5.08H71.6231V3.36C71.6231 2.4 71.8631 1.7 72.3431 1.26C72.8231 0.819999 73.5231 0.599999 74.4431 0.599999H75.4431V2.04H74.7031C74.1965 2.04 73.8365 2.14667 73.6231 2.36C73.4098 2.56 73.3031 2.90667 73.3031 3.4V5.08H79.4631V15H77.7831V6.5H73.3031V15H71.6231ZM78.6431 3.18C78.3231 3.18 78.0498 3.07333 77.8231 2.86C77.5965 2.63333 77.4831 2.35333 77.4831 2.02C77.4831 1.7 77.5965 1.43333 77.8231 1.22C78.0498 1.00667 78.3231 0.899999 78.6431 0.899999C78.9765 0.899999 79.2498 1.00667 79.4631 1.22C79.6898 1.43333 79.8031 1.7 79.8031 2.02C79.8031 2.35333 79.6898 2.63333 79.4631 2.86C79.2498 3.07333 78.9765 3.18 78.6431 3.18ZM82.4308 15V5.08H83.9508L84.0508 6.86C84.3708 6.23333 84.8308 5.74 85.4308 5.38C86.0308 5.02 86.7108 4.84 87.4708 4.84C88.6441 4.84 89.5774 5.2 90.2708 5.92C90.9774 6.62667 91.3308 7.72 91.3308 9.2V15H89.6508V9.38C89.6508 7.31333 88.7974 6.28 87.0908 6.28C86.2374 6.28 85.5241 6.59333 84.9508 7.22C84.3908 7.83333 84.1108 8.71333 84.1108 9.86V15H82.4308ZM94.8961 2.88C94.5628 2.88 94.2828 2.77333 94.0561 2.56C93.8428 2.33333 93.7361 2.05333 93.7361 1.72C93.7361 1.4 93.8428 1.13333 94.0561 0.919999C94.2828 0.706666 94.5628 0.599999 94.8961 0.599999C95.2161 0.599999 95.4894 0.706666 95.7161 0.919999C95.9428 1.13333 96.0561 1.4 96.0561 1.72C96.0561 2.05333 95.9428 2.33333 95.7161 2.56C95.4894 2.77333 95.2161 2.88 94.8961 2.88ZM94.0561 15V5.08H95.7361V15H94.0561ZM102.461 15.24C101.275 15.24 100.288 14.94 99.5013 14.34C98.7146 13.74 98.2546 12.9267 98.1213 11.9H99.8413C99.9479 12.42 100.221 12.8733 100.661 13.26C101.115 13.6333 101.721 13.82 102.481 13.82C103.188 13.82 103.708 13.6733 104.041 13.38C104.375 13.0733 104.541 12.7133 104.541 12.3C104.541 11.7 104.321 11.3 103.881 11.1C103.455 10.9 102.848 10.72 102.061 10.56C101.528 10.4533 100.995 10.3 100.461 10.1C99.9279 9.9 99.4813 9.62 99.1213 9.26C98.7613 8.88667 98.5813 8.4 98.5813 7.8C98.5813 6.93333 98.9013 6.22667 99.5413 5.68C100.195 5.12 101.075 4.84 102.181 4.84C103.235 4.84 104.095 5.10667 104.761 5.64C105.441 6.16 105.835 6.90667 105.941 7.88H104.281C104.215 7.37333 103.995 6.98 103.621 6.7C103.261 6.40667 102.775 6.26 102.161 6.26C101.561 6.26 101.095 6.38667 100.761 6.64C100.441 6.89333 100.281 7.22667 100.281 7.64C100.281 8.04 100.488 8.35333 100.901 8.58C101.328 8.80667 101.901 9 102.621 9.16C103.235 9.29333 103.815 9.46 104.361 9.66C104.921 9.84667 105.375 10.1333 105.721 10.52C106.081 10.8933 106.261 11.44 106.261 12.16C106.275 13.0533 105.935 13.7933 105.241 14.38C104.561 14.9533 103.635 15.24 102.461 15.24ZM108.661 15V0.599999H110.341V6.78C110.675 6.16667 111.148 5.69333 111.761 5.36C112.375 5.01333 113.041 4.84 113.761 4.84C114.908 4.84 115.828 5.2 116.521 5.92C117.215 6.62667 117.561 7.72 117.561 9.2V15H115.901V9.38C115.901 7.31333 115.068 6.28 113.401 6.28C112.535 6.28 111.808 6.59333 111.221 7.22C110.635 7.83333 110.341 8.71333 110.341 9.86V15H108.661ZM124.567 15.24C123.62 15.24 122.78 15.0267 122.047 14.6C121.313 14.16 120.733 13.5533 120.307 12.78C119.893 12.0067 119.687 11.0933 119.687 10.04C119.687 9 119.893 8.09333 120.307 7.32C120.72 6.53333 121.293 5.92667 122.027 5.5C122.773 5.06 123.633 4.84 124.607 4.84C125.567 4.84 126.393 5.06 127.087 5.5C127.793 5.92667 128.333 6.49333 128.707 7.2C129.08 7.90667 129.267 8.66667 129.267 9.48C129.267 9.62667 129.26 9.77333 129.247 9.92C129.247 10.0667 129.247 10.2333 129.247 10.42H121.347C121.387 11.18 121.56 11.8133 121.867 12.32C122.187 12.8133 122.58 13.1867 123.047 13.44C123.527 13.6933 124.033 13.82 124.567 13.82C125.26 13.82 125.84 13.66 126.307 13.34C126.773 13.02 127.113 12.5867 127.327 12.04H128.987C128.72 12.96 128.207 13.7267 127.447 14.34C126.7 14.94 125.74 15.24 124.567 15.24ZM124.567 6.26C123.767 6.26 123.053 6.50667 122.427 7C121.813 7.48 121.46 8.18667 121.367 9.12H127.607C127.567 8.22667 127.26 7.52667 126.687 7.02C126.113 6.51333 125.407 6.26 124.567 6.26ZM135.993 15.24C135.007 15.24 134.14 15.0133 133.393 14.56C132.66 14.1067 132.087 13.4867 131.673 12.7C131.273 11.9133 131.073 11.02 131.073 10.02C131.073 9.02 131.28 8.13333 131.693 7.36C132.107 6.57333 132.68 5.96 133.413 5.52C134.147 5.06667 135.013 4.84 136.013 4.84C136.827 4.84 137.547 5.00667 138.173 5.34C138.8 5.67333 139.287 6.14 139.633 6.74V0.599999H141.313V15H139.793L139.633 13.36C139.313 13.84 138.853 14.2733 138.253 14.66C137.653 15.0467 136.9 15.24 135.993 15.24ZM136.173 13.78C136.84 13.78 137.427 13.6267 137.933 13.32C138.453 13 138.853 12.56 139.133 12C139.427 11.44 139.573 10.7867 139.573 10.04C139.573 9.29333 139.427 8.64 139.133 8.08C138.853 7.52 138.453 7.08667 137.933 6.78C137.427 6.46 136.84 6.3 136.173 6.3C135.52 6.3 134.933 6.46 134.413 6.78C133.907 7.08667 133.507 7.52 133.213 8.08C132.933 8.64 132.793 9.29333 132.793 10.04C132.793 10.7867 132.933 11.44 133.213 12C133.507 12.56 133.907 13 134.413 13.32C134.933 13.6267 135.52 13.78 136.173 13.78Z" fill="white"/>
</svg>
