<svg width="132" height="20" viewBox="0 0 132 20" fill="none" xmlns="http://www.w3.org/2000/svg">
<path d="M4.36 15.02L0.52 0.999999H2.32L5.34 13.02L8.78 0.999999H10.64L13.98 13.02L17.04 0.999999H18.84L14.92 15H13L9.66 3.44L6.24 15L4.36 15.02ZM24.2203 15.24C23.287 15.24 22.447 15.0267 21.7003 14.6C20.9536 14.1733 20.3603 13.5733 19.9203 12.8C19.4936 12.0133 19.2803 11.0933 19.2803 10.04C19.2803 8.98667 19.5003 8.07333 19.9403 7.3C20.3803 6.51333 20.9736 5.90667 21.7203 5.48C22.4803 5.05333 23.327 4.84 24.2603 4.84C25.1936 4.84 26.0336 5.05333 26.7803 5.48C27.527 5.90667 28.1136 6.51333 28.5403 7.3C28.9803 8.07333 29.2003 8.98667 29.2003 10.04C29.2003 11.0933 28.9803 12.0133 28.5403 12.8C28.1003 13.5733 27.5003 14.1733 26.7403 14.6C25.9936 15.0267 25.1536 15.24 24.2203 15.24ZM24.2203 13.8C24.7936 13.8 25.327 13.66 25.8203 13.38C26.3136 13.1 26.7136 12.68 27.0203 12.12C27.327 11.56 27.4803 10.8667 27.4803 10.04C27.4803 9.21333 27.327 8.52 27.0203 7.96C26.727 7.4 26.3336 6.98 25.8403 6.7C25.347 6.42 24.8203 6.28 24.2603 6.28C23.687 6.28 23.1536 6.42 22.6603 6.7C22.167 6.98 21.767 7.4 21.4603 7.96C21.1536 8.52 21.0003 9.21333 21.0003 10.04C21.0003 10.8667 21.1536 11.56 21.4603 12.12C21.767 12.68 22.1603 13.1 22.6403 13.38C23.1336 13.66 23.6603 13.8 24.2203 13.8ZM31.5363 15V5.08H33.0563L33.1963 6.98C33.5029 6.32667 33.9696 5.80667 34.5963 5.42C35.2229 5.03333 35.9963 4.84 36.9163 4.84V6.6H36.4563C35.8696 6.6 35.3296 6.70667 34.8363 6.92C34.3429 7.12 33.9496 7.46667 33.6563 7.96C33.3629 8.45333 33.2163 9.13333 33.2163 10V15H31.5363ZM38.8019 15V0.599999H40.4819V9.26L44.5419 5.08H46.6019L42.2019 9.56L47.1619 15H45.0219L40.4819 9.86V15H38.8019ZM49.9 2.88C49.5667 2.88 49.2867 2.77333 49.06 2.56C48.8467 2.33333 48.74 2.05333 48.74 1.72C48.74 1.4 48.8467 1.13333 49.06 0.919999C49.2867 0.706666 49.5667 0.599999 49.9 0.599999C50.22 0.599999 50.4933 0.706666 50.72 0.919999C50.9467 1.13333 51.06 1.4 51.06 1.72C51.06 2.05333 50.9467 2.33333 50.72 2.56C50.4933 2.77333 50.22 2.88 49.9 2.88ZM49.06 15V5.08H50.74V15H49.06ZM53.6652 15V5.08H55.1852L55.2852 6.86C55.6052 6.23333 56.0652 5.74 56.6652 5.38C57.2652 5.02 57.9452 4.84 58.7052 4.84C59.8785 4.84 60.8118 5.2 61.5052 5.92C62.2118 6.62667 62.5652 7.72 62.5652 9.2V15H60.8852V9.38C60.8852 7.31333 60.0318 6.28 58.3252 6.28C57.4718 6.28 56.7585 6.59333 56.1852 7.22C55.6252 7.83333 55.3452 8.71333 55.3452 9.86V15H53.6652ZM69.0305 11.88C68.4705 11.88 67.9571 11.8067 67.4905 11.66L66.4905 12.6C66.6371 12.7067 66.8171 12.8 67.0305 12.88C67.2571 12.9467 67.5771 13.0133 67.9905 13.08C68.4038 13.1333 68.9838 13.1933 69.7305 13.26C71.0638 13.3533 72.0171 13.66 72.5905 14.18C73.1638 14.7 73.4505 15.38 73.4505 16.22C73.4505 16.7933 73.2905 17.34 72.9705 17.86C72.6638 18.38 72.1838 18.8067 71.5305 19.14C70.8905 19.4733 70.0638 19.64 69.0505 19.64C68.1571 19.64 67.3638 19.52 66.6705 19.28C65.9771 19.0533 65.4371 18.7 65.0505 18.22C64.6638 17.7533 64.4705 17.16 64.4705 16.44C64.4705 16.0667 64.5705 15.66 64.7705 15.22C64.9705 14.7933 65.3438 14.3867 65.8905 14C65.5971 13.88 65.3438 13.7533 65.1305 13.62C64.9305 13.4733 64.7438 13.3133 64.5705 13.14V12.68L66.2705 11C65.4838 10.3333 65.0905 9.45333 65.0905 8.36C65.0905 7.70667 65.2438 7.11333 65.5505 6.58C65.8571 6.04667 66.3038 5.62667 66.8905 5.32C67.4771 5 68.1905 4.84 69.0305 4.84C69.6038 4.84 70.1238 4.92 70.5905 5.08H74.2505V6.34L72.3905 6.42C72.7771 6.98 72.9705 7.62667 72.9705 8.36C72.9705 9.01333 72.8105 9.60667 72.4905 10.14C72.1838 10.6733 71.7371 11.1 71.1505 11.42C70.5771 11.7267 69.8705 11.88 69.0305 11.88ZM69.0305 10.5C69.7371 10.5 70.2971 10.32 70.7105 9.96C71.1371 9.58667 71.3505 9.05333 71.3505 8.36C71.3505 7.68 71.1371 7.16 70.7105 6.8C70.2971 6.42667 69.7371 6.24 69.0305 6.24C68.3105 6.24 67.7371 6.42667 67.3105 6.8C66.8971 7.16 66.6905 7.68 66.6905 8.36C66.6905 9.05333 66.8971 9.58667 67.3105 9.96C67.7371 10.32 68.3105 10.5 69.0305 10.5ZM66.1105 16.28C66.1105 16.9467 66.3905 17.44 66.9505 17.76C67.5105 18.0933 68.2105 18.26 69.0505 18.26C69.8771 18.26 70.5371 18.08 71.0305 17.72C71.5371 17.36 71.7905 16.88 71.7905 16.28C71.7905 15.8533 71.6171 15.48 71.2705 15.16C70.9238 14.8533 70.2838 14.6733 69.3505 14.62C68.6171 14.5667 67.9838 14.5 67.4505 14.42C66.9038 14.7133 66.5438 15.0267 66.3705 15.36C66.1971 15.7067 66.1105 16.0133 66.1105 16.28ZM81.4386 15V0.599999H83.1186V6.78C83.4519 6.16667 83.9253 5.69333 84.5386 5.36C85.1519 5.01333 85.8186 4.84 86.5386 4.84C87.6853 4.84 88.6053 5.2 89.2986 5.92C89.9919 6.62667 90.3386 7.72 90.3386 9.2V15H88.6786V9.38C88.6786 7.31333 87.8453 6.28 86.1786 6.28C85.3119 6.28 84.5853 6.59333 83.9986 7.22C83.4119 7.83333 83.1186 8.71333 83.1186 9.86V15H81.4386ZM97.4039 15.24C96.4706 15.24 95.6306 15.0267 94.8839 14.6C94.1372 14.1733 93.5439 13.5733 93.1039 12.8C92.6772 12.0133 92.4639 11.0933 92.4639 10.04C92.4639 8.98667 92.6839 8.07333 93.1239 7.3C93.5639 6.51333 94.1572 5.90667 94.9039 5.48C95.6639 5.05333 96.5106 4.84 97.4439 4.84C98.3772 4.84 99.2172 5.05333 99.9639 5.48C100.711 5.90667 101.297 6.51333 101.724 7.3C102.164 8.07333 102.384 8.98667 102.384 10.04C102.384 11.0933 102.164 12.0133 101.724 12.8C101.284 13.5733 100.684 14.1733 99.9239 14.6C99.1772 15.0267 98.3372 15.24 97.4039 15.24ZM97.4039 13.8C97.9772 13.8 98.5106 13.66 99.0039 13.38C99.4972 13.1 99.8972 12.68 100.204 12.12C100.511 11.56 100.664 10.8667 100.664 10.04C100.664 9.21333 100.511 8.52 100.204 7.96C99.9106 7.4 99.5172 6.98 99.0239 6.7C98.5306 6.42 98.0039 6.28 97.4439 6.28C96.8706 6.28 96.3372 6.42 95.8439 6.7C95.3506 6.98 94.9506 7.4 94.6439 7.96C94.3372 8.52 94.1839 9.21333 94.1839 10.04C94.1839 10.8667 94.3372 11.56 94.6439 12.12C94.9506 12.68 95.3439 13.1 95.8239 13.38C96.3172 13.66 96.8439 13.8 97.4039 13.8ZM113.4 5.08V15H111.88L111.78 13.22C111.46 13.8467 111 14.34 110.4 14.7C109.8 15.06 109.12 15.24 108.36 15.24C107.187 15.24 106.247 14.8867 105.54 14.18C104.847 13.46 104.5 12.36 104.5 10.88V5.08H106.18V10.7C106.18 12.7667 107.033 13.8 108.74 13.8C109.593 13.8 110.3 13.4933 110.86 12.88C111.433 12.2533 111.72 11.3667 111.72 10.22V5.08H113.4ZM116.165 15V5.08H117.685L117.825 6.98C118.132 6.32667 118.598 5.80667 119.225 5.42C119.852 5.03333 120.625 4.84 121.545 4.84V6.6H121.085C120.498 6.6 119.958 6.70667 119.465 6.92C118.972 7.12 118.578 7.46667 118.285 7.96C117.992 8.45333 117.845 9.13333 117.845 10V15H116.165ZM127.231 15.24C126.044 15.24 125.057 14.94 124.271 14.34C123.484 13.74 123.024 12.9267 122.891 11.9H124.611C124.717 12.42 124.991 12.8733 125.431 13.26C125.884 13.6333 126.491 13.82 127.251 13.82C127.957 13.82 128.477 13.6733 128.811 13.38C129.144 13.0733 129.311 12.7133 129.311 12.3C129.311 11.7 129.091 11.3 128.651 11.1C128.224 10.9 127.617 10.72 126.831 10.56C126.297 10.4533 125.764 10.3 125.231 10.1C124.697 9.9 124.251 9.62 123.891 9.26C123.531 8.88667 123.351 8.4 123.351 7.8C123.351 6.93333 123.671 6.22667 124.311 5.68C124.964 5.12 125.844 4.84 126.951 4.84C128.004 4.84 128.864 5.10667 129.531 5.64C130.211 6.16 130.604 6.90667 130.711 7.88H129.051C128.984 7.37333 128.764 6.98 128.391 6.7C128.031 6.40667 127.544 6.26 126.931 6.26C126.331 6.26 125.864 6.38667 125.531 6.64C125.211 6.89333 125.051 7.22667 125.051 7.64C125.051 8.04 125.257 8.35333 125.671 8.58C126.097 8.80667 126.671 9 127.391 9.16C128.004 9.29333 128.584 9.46 129.131 9.66C129.691 9.84667 130.144 10.1333 130.491 10.52C130.851 10.8933 131.031 11.44 131.031 12.16C131.044 13.0533 130.704 13.7933 130.011 14.38C129.331 14.9533 128.404 15.24 127.231 15.24Z" fill="white"/>
</svg>
