<svg width="132" height="29" viewBox="0 0 132 29" fill="none" xmlns="http://www.w3.org/2000/svg">
<path d="M33.36 23.8V28H19.8V23.8H24L22 18.6H11.08L9.08 23.8H13.68V28H0.32V23.8H4.08L12.2 4.72H8.76V0.559998H24.8V4.72H21.32L29.52 23.8H33.36ZM20.56 14.84L16.64 4.72H16.44L12.52 14.84H20.56ZM66.4319 25.68C65.6852 26.5333 64.8452 27.2267 63.9119 27.76C62.9785 28.2933 61.8319 28.56 60.4719 28.56C58.0185 28.56 55.9652 27.7067 54.3119 26C52.6852 24.2667 51.4185 21.5867 50.5119 17.96L50.1119 16.68H45.1919V23.84H49.8719V28H35.0719V23.8H39.8719V4.76H35.0719V0.559998H51.2319C54.4585 0.559998 57.0185 1.28 58.9119 2.72C60.8319 4.13333 61.7919 6.09333 61.7919 8.6C61.7919 10.68 61.1785 12.3867 59.9519 13.72C58.7519 15.0533 57.0319 15.9467 54.7919 16.4L55.2319 17.64C55.9519 19.8267 56.7652 21.3867 57.6719 22.32C58.6052 23.2267 59.6452 23.68 60.7919 23.68C61.9919 23.68 63.0452 23.2 63.9519 22.24L66.4319 25.68ZM45.1919 12.76H51.3919C52.8052 12.76 54.0185 12.4133 55.0319 11.72C56.0452 11 56.5519 9.96 56.5519 8.6C56.5519 7.34667 56.0585 6.4 55.0719 5.76C54.0852 5.09333 52.8585 4.76 51.3919 4.76H45.1919V12.76ZM94.3869 21.8C92.9735 23.88 91.2135 25.52 89.1069 26.72C87.0269 27.92 84.6002 28.52 81.8269 28.52C79.1335 28.52 76.6669 27.9067 74.4269 26.68C72.2135 25.4533 70.4535 23.76 69.1469 21.6C67.8669 19.44 67.2269 17.0267 67.2269 14.36C67.2269 11.5867 67.8402 9.10667 69.0669 6.92C70.2935 4.73333 71.9335 3.04 73.9869 1.84C76.0669 0.613331 78.3069 -1.90735e-06 80.7069 -1.90735e-06C84.1469 -1.90735e-06 86.9335 1.14667 89.0669 3.44V0.559998H93.8269V9.8L90.3869 10.12C89.5602 8.30667 88.4135 6.86667 86.9469 5.8C85.4802 4.73333 83.6669 4.2 81.5069 4.2C79.9869 4.2 78.5469 4.61333 77.1869 5.44C75.8535 6.24 74.7735 7.41333 73.9469 8.96C73.1469 10.48 72.7469 12.2533 72.7469 14.28C72.7469 16.1467 73.1469 17.84 73.9469 19.36C74.7469 20.8533 75.8402 22.04 77.2269 22.92C78.6135 23.7733 80.1469 24.2 81.8269 24.2C83.9069 24.2 85.6535 23.76 87.0669 22.88C88.5069 21.9733 89.8002 20.68 90.9469 19L94.3869 21.8ZM126.78 4.76V23.8H131.58V28H116.66V23.8H121.46V16H107.34V23.8H112.14V28H97.2203V23.8H102.02V4.76H97.2203V0.559998H112.14V4.76H107.34V12.04H121.46V4.76H116.66V0.559998H131.58V4.76H126.78Z" fill="#333333"/>
</svg>
